# xmcd
#
# Track frame offsets: 
#        150
#        15322
#        30443
#        47008
#        60252
#        82871
#        99272
#        114947
#        136855
#        151565
#        168308
#
# Disc length: 2694 seconds
#
# Revision: 0
# Processed by: cddbd v1.4PL0 Copyright (c) Steve Scherf et al.
# Submitted via: ExactAudioCopy v0.90b4
#
DISCID=630a840b
DTITLE=Edu Weber and Bonneville - Tumbleweed
DYEAR=2001
DGENRE=
TTITLE0=Kansas City Turnpike Blues
TTITLE1=Tumbleweed
TTITLE2=I Wonder Who Is With You Tonight
TTITLE3=Let's Do It
TTITLE4=Edna, South Texas
TTITLE5=Big Painted Smile
TTITLE6=Guess I'm Goin' Back Home
TTITLE7=Let Me Start Living Again
TTITLE8=I'm Riding
TTITLE9=Nuevo Laredo
TTITLE10=Kickin' The Blues
EXTD=
EXTT0=
EXTT1=
EXTT2=
EXTT3=
EXTT4=
EXTT5=
EXTT6=
EXTT7=
EXTT8=
EXTT9=
EXTT10=
PLAYORDER=
